PathFileType	4	(X/Y/Z)	s05c0201.trc
DataRate	CameraRate	NumFrames	NumMarkers	Units	OrigDataRate	OrigDataStartFrame	OrigNumFrames
200	200	5	50	mm	200	500	2000
Frame#	Time	racr			lacr			c7			jug			rlel			rdr			llel			ldr			s2			lic			ric			lasi			rasi			rpsi			lpsi			rgt			lgt			rth1			rth2			rth3			rth4			rlfc			rmfc			rsh1			rsh2			rsh3			rsh4			rlmal			rmmal			rcal			rtoe			rmt5			lth1			lth2			lth4			lth3			llfc			lmfc			lsh1			lsh2			lsh3			lsh4			llmal			lmmal			lcal			ltoe			lmt5			SBIKE			LBIKE			RBIKE			
		X1	Y1	Z1	X2	Y2	Z2	X3	Y3	Z3	X4	Y4	Z4	X5	Y5	Z5	X6	Y6	Z6	X7	Y7	Z7	X8	Y8	Z8	X9	Y9	Z9	X10	Y10	Z10	X11	Y11	Z11	X12	Y12	Z12	X13	Y13	Z13	X14	Y14	Z14	X15	Y15	Z15	X16	Y16	Z16	X17	Y17	Z17	X18	Y18	Z18	X19	Y19	Z19	X20	Y20	Z20	X21	Y21	Z21	X22	Y22	Z22	X23	Y23	Z23	X24	Y24	Z24	X25	Y25	Z25	X26	Y26	Z26	X27	Y27	Z27	X28	Y28	Z28	X29	Y29	Z29	X30	Y30	Z30	X31	Y31	Z31	X32	Y32	Z32	X33	Y33	Z33	X34	Y34	Z34	X35	Y35	Z35	X36	Y36	Z36	X37	Y37	Z37	X38	Y38	Z38	X39	Y39	Z39	X40	Y40	Z40	X41	Y41	Z41	X42	Y42	Z42	X43	Y43	Z43	X44	Y44	Z44	X45	Y45	Z45	X46	Y46	Z46	X47	Y47	Z47	X48	Y48	Z48	X49	Y49	Z49	X50	Y50	Z50	
500	2.5000	426.480703	1318.641239	-86.701485	472.751290	1313.354952	-338.123261	402.048906	1400.773439	-223.096198	386.759909	1230.816321	-220.758910	464.880247	1076.767682	41.295591	673.050608	970.007777	-62.128835	455.257101	1112.480416	-568.254707	661.871143	970.333099	-495.096420	-138.027238	1173.018555	-304.327821	31.641808	1175.815207	-430.561713	-8.575328	1215.215602	-155.317693	66.185285	1121.243419	-386.590525	42.920528	1154.408939	-172.341315	-107.262703	1226.719092	-269.705302	-95.374572	1221.529831	-353.906669	-34.365981	1088.820516	-120.077430	-40.292848	1067.708945	-459.370393	74.696779	1028.070248	-107.325550	161.595451	1007.443337	-108.318990	224.314748	945.660480	-112.673763	177.831815	1038.466885	-121.369236	349.030024	861.465530	-138.933019	333.515101	853.463292	-247.539034	292.424181	767.607527	-108.088100	285.093329	679.311115	-115.889733	239.351819	607.700334	-114.276872	314.560660	671.601757	-140.846853	201.597869	478.202360	-116.176927	207.067408	505.072669	-196.861841	132.987119	432.116980	-156.832131	426.422688	464.128108	-159.480455	333.057121	423.340482	-90.509138	60.317979	963.445871	-458.379623	133.197480	920.582575	-443.948864	157.107839	943.787876	-427.424784	176.667518	841.416935	-439.640033	251.228118	716.818593	-404.615856	222.596098	705.717353	-298.802038	175.085204	617.695915	-439.410568	145.281213	536.150150	-429.521253	78.955228	477.590989	-437.432466	168.034894	521.706218	-402.056910	13.291497	374.038480	-438.182869	43.635623	382.295679	-358.890179	-58.344457	370.018830	-396.076545	173.530223	186.200373	-396.397669	71.153722	225.511375	-458.692882	-265.185006	894.683292	-286.689688	-53.494706	78.982356	-475.003625	-53.529247	79.092934	-77.419406	
501	2.5050	426.924626	1317.837365	-86.043587	473.663598	1312.138458	-337.126579	402.729705	1399.979326	-222.378606	387.240596	1229.987346	-220.107315	464.939696	1076.186326	42.112402	673.439310	970.069829	-61.559498	455.251388	1112.244406	-568.288710	661.897118	970.302527	-495.276207	-137.704562	1174.130694	-304.371482	31.422891	1176.350675	-430.395872	-7.824458	1215.563985	-154.757126	65.787069	1121.446650	-386.722102	43.635603	1154.702538	-172.189428	-106.801242	1227.532901	-269.217121	-95.220959	1222.325966	-353.406361	-34.018203	1089.001610	-119.951904	-40.923488	1068.640678	-459.212553	74.381111	1026.912560	-107.092911	161.018329	1005.111376	-108.127881	222.930209	942.604899	-112.581725	177.655495	1036.004578	-121.070899	347.031779	857.305790	-138.753590	331.323026	849.042185	-247.450935	292.066419	762.441467	-107.530671	286.123705	673.892387	-115.400991	241.536720	601.724446	-113.755644	315.489724	666.725292	-140.586390	205.518147	471.295971	-115.602288	210.597370	498.336816	-196.336940	136.833884	425.300048	-156.111370	430.505674	457.990889	-159.524064	337.449419	416.905629	-90.399577	59.895914	964.585957	-458.669287	133.131434	922.274487	-444.293090	156.840182	945.617549	-427.623379	177.171155	843.472624	-440.189066	252.984701	719.383708	-404.847101	224.514351	708.550758	-298.488889	175.211452	621.345232	-439.473635	144.237208	540.285861	-429.508774	76.917894	482.844587	-436.926742	166.930585	525.537868	-402.223451	10.046446	380.570926	-437.721561	40.783953	388.431368	-358.609043	-61.636622	376.942769	-395.571496	169.223752	191.894537	-396.519468	66.938088	231.754329	-458.549806	-265.125123	894.680004	-286.598858	-53.511893	78.991120	-474.983196	-53.535799	79.076130	-77.414104	
502	2.5100	427.408734	1317.038246	-85.566558	474.674379	1310.961960	-336.283726	403.440818	1399.427242	-221.924437	387.710889	1229.235610	-219.558495	465.114951	1075.533770	42.886435	673.760882	970.063839	-61.079245	455.293945	1112.059128	-568.376843	661.877845	970.279732	-495.298575	-137.584275	1174.893875	-303.550191	31.181031	1177.044726	-430.218847	-7.167901	1215.675901	-154.748943	65.377164	1121.815268	-386.895196	44.409319	1154.932491	-171.881096	-106.326212	1228.242772	-268.583321	-94.990684	1223.244234	-352.800709	-33.639268	1089.092101	-119.758575	-41.511823	1069.736955	-459.065292	74.124301	1025.682243	-106.819997	160.451252	1002.554272	-107.940442	221.450396	939.109698	-112.663816	177.523555	1033.285459	-120.790611	344.907147	852.825692	-138.597944	329.344888	843.378616	-247.170034	291.525997	756.867375	-107.039420	286.966184	668.362547	-114.969711	243.484061	595.513166	-113.267777	316.138015	661.806609	-140.369486	209.228455	464.337457	-114.990111	213.837132	491.597067	-195.828701	140.767674	418.126367	-155.443038	434.376825	451.597299	-159.629629	341.500241	410.304088	-90.372745	59.596867	965.985137	-458.873887	133.189325	924.256542	-444.648777	156.705606	947.712249	-427.805845	177.804940	845.751908	-440.665999	254.782567	722.086164	-405.092359	226.325832	711.461664	-298.948305	175.320571	625.279975	-439.689922	143.282673	544.610759	-429.558160	75.031927	488.105726	-436.503451	166.074131	529.365257	-402.539313	6.975974	387.152973	-437.234366	38.216963	394.731366	-358.275065	-64.716753	383.970907	-395.030437	165.171406	197.653830	-396.534440	62.983950	238.241162	-458.519644	-265.078177	894.695329	-286.578411	-53.514816	79.038521	-474.961245	-53.533814	79.091133	-77.382558	
503	2.5150	428.133251	1316.241351	-85.027171	475.575356	1309.915519	-335.586879	404.266278	1398.847825	-221.349249	388.256968	1228.570133	-219.123574	465.219719	1075.082600	43.748237	673.989093	969.974179	-60.748633	455.375329	1111.913177	-568.443308	661.829048	970.258846	-495.214424	-137.332877	1175.773845	-302.982030	30.956576	1177.718383	-430.022521	-6.350438	1215.829765	-154.323588	65.029522	1122.313185	-387.076200	45.156853	1155.073129	-171.609533	-105.715856	1229.025418	-267.927693	-94.652335	1224.054129	-352.273069	-33.241966	1089.038306	-119.545050	-41.997044	1070.877040	-458.949287	73.938038	1024.269933	-106.565980	159.900029	999.795410	-107.801206	220.151160	935.682698	-112.358053	177.479529	1030.270412	-120.542823	342.595654	848.043057	-138.506202	326.524666	838.571824	-247.593198	290.682446	751.222824	-106.605175	287.550724	662.630635	-114.682378	245.162403	589.007035	-112.819240	316.623511	656.733711	-140.336262	212.692154	457.331329	-114.473624	216.975752	484.571386	-195.466785	144.172756	411.822384	-154.032722	437.972035	444.921910	-159.740188	345.407731	403.531241	-90.251624	59.541779	967.759975	-459.034453	133.504202	926.488518	-444.925865	156.817639	950.071525	-427.999301	178.594918	848.271711	-440.929205	256.733460	724.986230	-405.479667	228.285423	714.461360	-299.178637	175.466599	629.300121	-439.950054	142.418878	549.101461	-429.685087	73.288647	493.601701	-436.205140	165.182226	533.441123	-402.839912	4.271141	394.050205	-436.839894	35.374737	401.510175	-357.936882	-67.598939	391.406450	-394.867930	161.365894	203.822609	-396.589402	59.340043	244.899871	-458.439248	-265.046830	894.742954	-286.556963	-53.510399	79.056668	-474.945257	-53.522929	79.084542	-77.359962	
504	2.5200	428.807254	1315.562209	-84.651804	476.361007	1308.986172	-334.887682	405.064640	1398.342792	-220.960799	388.923906	1227.848178	-218.745447	465.566311	1074.681976	44.420386	674.067300	969.935962	-60.413689	455.501290	1111.829657	-568.565495	661.700412	970.259962	-494.992577	-137.059547	1176.416077	-301.778096	30.717751	1178.650700	-429.866810	-5.362494	1216.287042	-153.501969	64.609940	1122.912051	-387.217373	45.986182	1155.164742	-171.273948	-105.039921	1229.816302	-267.127035	-94.450204	1225.095835	-351.575259	-32.746260	1088.917369	-119.301736	-42.344463	1072.083049	-458.822793	73.866211	1022.693624	-106.326713	159.466424	996.783187	-107.622169	218.557899	931.736303	-112.446919	177.473621	1027.101776	-120.297026	340.091204	842.978063	-138.415347	323.489987	833.398779	-247.684216	289.545320	745.400486	-106.175329	287.786108	656.731992	-114.393719	246.667844	582.396053	-112.530306	316.755131	651.247403	-140.229419	215.805202	450.399473	-113.887720	219.667715	477.478836	-194.927490	147.515864	404.402240	-153.287016	441.292002	437.951781	-159.848379	348.941585	396.563071	-90.128922	59.742285	969.718968	-459.123893	134.058186	928.968354	-445.083020	157.155452	952.812235	-428.080523	179.860932	851.303193	-441.386110	258.704577	728.389196	-405.749191	230.526060	717.642105	-299.527661	175.955100	633.445250	-440.271688	141.831936	553.842132	-429.894735	71.805131	499.340653	-435.997320	164.401579	537.786840	-403.274604	1.877466	400.942243	-436.566134	33.334723	408.138173	-357.803576	-70.328603	399.140838	-394.476182	157.851436	210.045333	-396.615156	56.030038	251.705563	-458.448223	-265.059784	894.750467	-286.506386	-53.512698	79.076566	-474.952717	-53.511448	79.082818	-77.358631	
